<?xml version="1.0" encoding="UTF-8"?>
<svg id="Livello_2" data-name="Livello 2" xmlns="http://www.w3.org/2000/svg" viewBox="0 0 918.99 257.77">
  <defs>
    <style>
      .cls-1 {
        fill: none;
        stroke: #1d1d1b;
        stroke-miterlimit: 10;
        stroke-width: 14px;
      }

      .cls-2 {
        fill: #49ce0b;
      }

      .cls-2, .cls-3, .cls-4, .cls-5, .cls-6, .cls-7, .cls-8 {
        stroke-width: 0px;
      }

      .cls-3 {
        fill: #070808;
      }

      .cls-4 {
        fill: #b2ba9d;
      }

      .cls-5 {
        fill: #f1f1ed;
      }

      .cls-6 {
        fill: #030504;
      }

      .cls-7 {
        fill: #050606;
      }

      .cls-8 {
        fill: #050505;
      }
    </style>
  </defs>
  <g id="Livello_1-2" data-name="Livello 1">
    <g>
      <g>
        <path class="cls-6" d="M173.16,257.77c-1.41-.78-3.21-1.76-4.98-2.78-27.31-15.72-54.62-31.45-81.92-47.2-.67-.39-1.3-1.02-1.7-1.69-23.22-38.73-46.43-77.47-69.62-116.22-3.76-6.28-7.46-12.59-11.21-18.88-5.13-8.61-4.75-17.55-.23-25.94C15.05,23.64,33.91,12.29,57.27,7.76c6.36-1.23,12.73-.79,18.95,1.38,5.66,1.98,10.03,5.48,13.1,10.6,26.83,44.81,53.65,89.63,80.42,134.47.64,1.07,1.01,2.46,1.05,3.72.83,25.31,1.65,50.62,2.34,75.94.22,7.96.03,15.94.03,23.9ZM157.4,185.27v-23.28c-1.2.21-1.67.29-2.15.37-2.29.38-4.57.78-6.86,1.14-8.4,1.35-16.74,1.16-24.9-1.42-2.89-.91-5.66-2.19-8.59-3.33.38,15.85-7.73,27.84-17.33,39.21,16.2,9.31,32.12,18.47,48.07,27.64,3.15-4.55,7-7.59,12.13-7.57,0-6.98,0-13.71,0-20.44-.12-4.11-.25-8.22-.37-12.32ZM62.05,61.23c3.04-1.31,6.04-2.71,9.13-3.9,6.85-2.64,13.97-3.97,21.7-3.82-1.84-3.11-3.49-5.86-5.11-8.63-1.66-2.83-4.14-4.53-7.31-5.08-9.86-1.73-18.84,1.1-27.49,5.51-7.42,3.24-13.65,8.16-19.28,13.88-3.54,3.59-6.26,7.72-7.93,12.53-1.15,3.3-1.18,6.52.57,9.59,1.64,2.88,3.42,5.69,5.22,8.66.34-.44.64-.73.82-1.08,3.13-6.07,7.33-11.38,12.64-15.58,5.45-4.31,11.34-8.07,17.04-12.08ZM94.16,194.45c1.84-2.27,3.61-4.35,5.27-6.52,6.85-8.94,11.15-18.83,10.82-30.32-.03-1.17-.39-2.47-.99-3.48-15.54-26.06-31.13-52.09-46.71-78.13-.36-.6-.79-1.17-1.25-1.83-2,1.44-3.88,2.68-5.62,4.09-6.6,5.34-12.47,11.26-15.46,19.48-1.04,2.86-.95,5.36.77,8.18,11.27,18.49,22.33,37.11,33.46,55.68,6.52,10.88,13.06,21.76,19.71,32.84ZM14.64,60.74c14.53-21.61,34.47-33.75,60.28-36.03-2.65-2.5-7.76-3.67-12.62-3.25-8.99.76-17.14,3.96-24.76,8.52-8.52,5.09-16.06,11.34-20.89,20.25-1.73,3.19-2.97,6.61-2.01,10.52Z"/>
        <path class="cls-3" d="M777.15,14.01c7.47-.92,14.81-1.84,22.14-2.71,3.88-.46,7.77-.87,11.66-1.27,5.38-.54,10.61-.02,15.61,2.19,6.77,2.99,10.11,8.38,10.74,15.55,1.02,11.58-3.14,20.66-13.44,26.76,5.52,10.12,11.02,20.2,16.68,30.57-7.07.88-13.72,1.71-20.58,2.57-3.36-6.33-6.73-12.69-10.1-19.05-.82-1.54-1.81-3.01-2.4-4.63-.74-2.02-1.97-2.55-3.97-2.2-2.45.44-4.92.7-7.56,1.06v27.69c-6.31.79-12.46,1.56-18.77,2.36V14.01ZM796,48.06c4.78-.62,9.34-.99,13.8-1.86,4.06-.8,7.08-3.26,8.2-7.44,1.82-6.81-.23-14.73-9.37-13.93-4.19.37-8.36,1.06-12.64,1.61v21.62Z"/>
        <path class="cls-7" d="M846.32,44.86c.09-10.98,2.49-21.16,9.04-30.11,9.35-12.78,27.8-18.23,41.92-12.43,7.95,3.26,13.02,9.38,15.36,17.31,4.36,14.79,3.9,29.44-3.71,43.25-7.99,14.5-26.01,22.01-41.68,17.4-11.13-3.27-16.91-11.52-19.35-22.33-.96-4.26-1.08-8.72-1.58-13.09ZM895.82,39.17c0-1.83.26-3.71-.05-5.49-.68-3.9-1.25-7.9-2.62-11.57-1.41-3.78-4.29-6.52-8.7-6.87-8.17-.65-13.92,3.22-16.6,11.26-2.5,7.5-2.38,15.26-1.68,22.98.3,3.34,1.08,6.75,2.3,9.87,2.1,5.35,6.2,7.51,11.87,7.07,5.57-.43,9.47-3.27,11.99-8.11,3.14-6.01,3.67-12.52,3.48-19.15Z"/>
        <path class="cls-7" d="M630.82,110.78c-6.85.85-13.51,1.68-20.27,2.53-1.53-4.75-3.02-9.37-4.58-14.21-5.19.63-10.29,1.24-15.39,1.86-2.72.33-5.43.81-8.17,1-1.91.13-2.61,1.11-3.06,2.8-1,3.76-2.12,7.49-3.3,11.21-.21.66-.86,1.61-1.4,1.68-6.25.82-12.52,1.49-19.17,2.24,1.56-4.55,3.01-8.82,4.49-13.07,7.78-22.28,15.6-44.55,23.31-66.86.65-1.88,1.58-2.53,3.49-2.72,4.96-.48,9.89-1.19,15.15-1.84,9.6,25.04,19.22,50.11,28.91,75.38ZM593.02,58.69c-2.86,9.67-5.56,18.82-8.36,28.31,5.85-.74,11.24-1.42,16.78-2.12-2.81-8.74-5.51-17.16-8.41-26.19Z"/>
        <path class="cls-7" d="M444.48,118.83c-1.41,4.69-2.73,9.23-4.16,13.73-.21.65-.9,1.53-1.46,1.61-6.25.85-12.52,1.56-19.08,2.34,3.08-8.86,6.07-17.44,9.06-26.02,6.32-18.15,12.64-36.29,19.03-54.42.3-.84,1.21-1.95,1.96-2.05,5.42-.78,10.87-1.33,16.42-1.97,9.64,25.09,19.23,50.04,28.9,75.22-6.79.85-13.38,1.68-20.23,2.54-1.34-4.06-2.77-8.09-3.97-12.19-.44-1.49-1-2.01-2.57-1.8-7.91,1.05-15.83,2-23.91,3.01ZM449,103.5c5.83-.69,11.21-1.33,16.78-1.99-2.79-8.71-5.48-17.12-8.18-25.52-.16,0-.32,0-.47,0-2.66,9-5.32,17.99-8.13,27.5Z"/>
        <path class="cls-7" d="M351.29,144.91c-6.9.85-13.48,1.67-20.28,2.51-1.35-4.16-2.75-8.21-3.94-12.32-.44-1.5-1.04-1.98-2.59-1.77-7.5,1.03-15.01,1.93-22.51,2.98-.65.09-1.5.89-1.71,1.54-1.31,4.02-2.51,8.07-3.66,12.14-.33,1.16-.77,1.72-2.12,1.87-6.03.66-12.04,1.49-18.32,2.29.14-.72.19-1.33.38-1.89,9.11-26.22,18.25-52.43,27.34-78.65.47-1.35,1.14-1.95,2.58-2.11,4.71-.5,9.42-1.12,14.12-1.71,1.2-.15,1.89.06,2.4,1.41,9.34,24.46,18.76,48.88,28.31,73.7ZM321.88,119.14c-2.77-8.68-5.49-17.18-8.4-26.29-2.86,9.68-5.57,18.82-8.37,28.28,5.81-.69,11.21-1.33,16.77-1.99Z"/>
        <path class="cls-7" d="M416.05,81.56c-6.25.75-12.34,1.48-18.6,2.23-.27-4.33-1.79-7.71-6.46-8.52-5.34-.94-10.16.15-13.71,4.49-2.95,3.62-2.08,8.04,2.3,9.91,4.23,1.81,8.85,2.68,13.26,4.11,4.24,1.38,8.61,2.55,12.59,4.5,13.67,6.73,12.86,23.67,5.75,31.99-5.57,6.52-12.89,9.45-20.96,10.95-6.87,1.28-13.73,1.13-20.48-.96-9.62-2.99-15.91-11.76-15.09-21.36,6.12-.74,12.28-1.48,18.58-2.23.13.89.22,1.6.34,2.31.98,6.04,3.59,8.49,9.7,8.4,2.93-.04,5.95-.59,8.75-1.49,3.37-1.09,5.15-3.85,5.28-7.42.13-3.56-1.54-6.15-4.96-7.23-4.58-1.44-9.28-2.48-13.84-3.97-4-1.31-8.07-2.62-11.75-4.59-12.49-6.68-11.85-20.81-5.65-28.87,5.6-7.28,13.39-10.65,22.04-12.48,5.76-1.22,11.52-1.47,17.31-.02,9.73,2.44,16.14,10.59,15.62,20.28Z"/>
        <path class="cls-7" d="M695.69,47.42c-6.24.75-12.41,1.48-18.57,2.22-1.18-6.02-2.8-7.91-7.39-8.75-4.74-.86-10.92,1.55-13.28,5.2-2.41,3.7-1.53,7.67,2.71,9.52,3.76,1.64,7.89,2.42,11.82,3.69,4.64,1.5,9.47,2.64,13.81,4.76,14.12,6.9,13.08,24.26,5.52,32.51-4.43,4.84-9.93,7.7-16.14,9.36-8.17,2.18-16.38,2.75-24.62.28-9.84-2.95-15.83-11.19-15.4-21.46,6.12-.73,12.28-1.46,18.56-2.21.19,1.13.37,2.1.51,3.06.68,4.47,2.96,7.27,7.35,7.47,3.64.16,7.44-.41,10.97-1.38,3.4-.93,5.11-3.81,5.24-7.41.13-3.61-1.6-6.13-4.96-7.22-4.41-1.43-8.96-2.39-13.37-3.84-4.15-1.36-8.41-2.68-12.24-4.73-12.29-6.59-11.92-20.44-5.75-28.67,5.46-7.28,13.14-10.68,21.71-12.55,6.09-1.33,12.18-1.6,18.28.02,9.32,2.47,15.11,9.95,15.2,20.12Z"/>
        <path class="cls-8" d="M705.46,101.67V22.76c8.28-1,16.52-2.05,24.77-2.96,4.37-.48,8.78-1.07,13.16-.99,9.44.18,17.4,3.62,21.37,12.74,4.04,9.29,2.94,18.38-3.11,26.62-5.61,7.64-13.68,11.07-22.7,12.57-4.82.8-9.68,1.3-14.62,1.95v26.69c-6.3.76-12.52,1.51-18.87,2.28ZM724.48,35.11v22.8c4.71-.62,9.26-1.05,13.75-1.84,5.03-.88,8.32-3.81,9.41-8.97,1.56-7.39-2.57-13.64-9.24-13.44-4.63.14-9.24.94-13.93,1.45Z"/>
        <path class="cls-7" d="M254.47,129.98c6.23-.74,12.24-1.46,18.52-2.21-.35,8.09-2.95,15.18-8.65,20.68-10.55,10.18-23.33,13.57-37.47,10.13-9.16-2.23-14.65-9.04-17.07-17.88-3.54-12.94-3.57-25.97,1.04-38.75,5.19-14.36,18.54-24.6,36.57-23.75,9.72.46,17.75,3.81,22.38,12.78,1.82,3.52,2.64,7.56,4.03,11.72-6.84.87-13,1.66-19.17,2.45-.41-1.9-.73-3.77-1.22-5.59-1.03-3.84-3.78-5.77-7.56-6.24-9.25-1.15-15.77,3.03-17.72,12.1-2.24,10.42-2.29,21.01.22,31.42,1.53,6.35,6.48,8.84,12.99,7.65,5.94-1.08,10.52-3.56,12.23-9.74.42-1.51.57-3.09.87-4.77Z"/>
        <path class="cls-8" d="M501,47.74c6.2-.73,12.37-1.46,18.79-2.21v64.08c11.01-1.33,21.79-2.63,32.7-3.95v14.64c-17.15,2.12-34.23,4.23-51.48,6.36V47.74Z"/>
        <path class="cls-2" d="M233.92,176.87c3.44-.46,6.64-.89,10.15-1.37,2.51,9.62,4.99,19.13,7.47,28.64.19.01.38.03.57.04,1.49-10.06,2.98-20.12,4.49-30.3,3.89-.51,7.66-.99,11.82-1.53-.59,3.6-1.11,7.01-1.7,10.4-2.28,13.01-4.61,26.01-6.83,39.04-.25,1.45-.75,1.9-2.18,2.04-3.46.33-6.91.89-10.56,1.38-2.43-8.87-4.84-17.64-7.25-26.41-.14,0-.28,0-.42.01-1.56,8.15-3.21,16.28-4.62,24.45-.47,2.72-1.21,4.26-4.42,4.17-2.86-.08-5.73.62-8.75,1-4.06-16.25-8.05-32.24-12.11-48.47,4.15-.5,7.98-.96,11.94-1.43,2.19,9.99,4.32,19.69,6.6,30.05,2-10.94,3.88-21.22,5.79-31.72Z"/>
        <path class="cls-2" d="M371.23,183.71c5.51,1.23,7.9,4.78,8.01,9.93.13,6.04-2.05,11.19-7.7,13.71-4.01,1.79-8.5,2.66-12.87,3.44-5.63,1.01-11.35,1.52-17.34,2.28-.54-16.66-1.07-33.1-1.6-49.81,5.18-.67,10.16-1.43,15.17-1.93,3.63-.36,7.3-.62,10.94-.49,5.69.19,9.61,3.13,11.01,7.77,1.68,5.55.16,10.58-4.25,14.07-.37.29-.76.57-1.38,1.03ZM352.97,190.43v12c3.76-.71,7.34-1.03,10.68-2.11,3.26-1.06,4.24-3.99,3.26-7.59-.77-2.8-2.43-3.81-5.97-3.43-2.63.29-5.24.73-7.96,1.12ZM352.13,182.71c3.74-.74,6.99-1.09,10.04-2.07,2.88-.92,3.88-3.69,3.17-7.02-.51-2.36-2.21-3.57-5.3-3.45-2.24.09-4.48.37-6.68.75-.48.08-1.15.94-1.17,1.46-.11,3.23-.05,6.47-.05,10.33Z"/>
        <path class="cls-2" d="M890.55,142.47c-3.72.5-7.57,1.02-11.75,1.59-.53-16.72-1.06-33.24-1.59-49.93,4.79-.63,9.3-1.27,13.82-1.81,3.39-.4,6.79-.93,10.18-.94,5.39,0,10.46,1.37,13.07,6.61,2.73,5.5,2.36,11.2-.98,16.4-1.31,2.04-3.34,3.63-5.27,5.67,3.45,5.93,7.1,12.21,10.96,18.84-4.38.55-8.39,1.11-12.42,1.49-.46.04-1.16-.78-1.49-1.35-2.41-4.17-4.9-8.31-7.06-12.62-1.04-2.08-2.32-2.49-4.33-1.99-1.03.26-2.1.35-3.13.51v17.51ZM889.82,101.92v13.81c3.51-.63,6.74-.92,9.79-1.82,3.58-1.04,5.18-5,4.09-9.02-.8-2.95-3.45-4.39-7.14-3.89-2.22.3-4.44.6-6.74.92Z"/>
        <path class="cls-2" d="M431.27,201.61c-.53-16.83-1.05-33.28-1.58-50,5.45-.67,10.72-1.23,15.96-2,5.72-.84,10.91.32,15.56,3.72,4.72,3.45,7.06,8.33,7.81,13.97,1.21,9.19-.02,17.79-6.82,24.8-3.57,3.68-7.94,6.12-12.96,7.01-5.8,1.03-11.68,1.65-17.97,2.51ZM442.02,159.49c.32,10.43.63,20.76.95,31.19,1.19-.15,2.17-.29,3.15-.4,5.75-.64,8.91-3.2,10.33-8.83,1.42-5.59,1.13-11.22-.62-16.69-1.32-4.11-4.55-6.19-8.73-5.95-1.63.09-3.26.43-5.07.68Z"/>
        <path class="cls-2" d="M746.21,137.16c-.2,8.95-2.36,16.56-9.15,22.26-8.78,7.38-22.02,7.13-28.76-1.02-2.18-2.64-3.82-6.14-4.55-9.5-2.01-9.25-1.71-18.4,4.1-26.5,6.42-8.96,19.62-12.14,28.42-6.87,6.15,3.68,8.62,9.63,9.53,16.4.25,1.89.31,3.81.41,5.23ZM734.42,138.96c-.12-.04-.24-.09-.37-.13-.25-2.56-.45-5.13-.78-7.68-.13-.97-.5-1.93-.85-2.86-2.07-5.5-7.51-7.5-12.28-4.11-1.82,1.29-3.46,3.54-4.11,5.68-1.9,6.26-1.58,12.68.24,18.94,1.22,4.21,3.7,6.14,7.39,6.34,3.52.19,7.27-2.07,8.5-5.8,1.1-3.34,1.53-6.9,2.25-10.37Z"/>
        <path class="cls-2" d="M501.74,183.07c7.49-.96,14.65-1.87,22.13-2.83.16,3.08.31,6.03.47,9.3-11.39,1.47-22.64,2.92-34.1,4.39-.11-.96-.25-1.67-.27-2.38-.48-15.24-.93-30.48-1.44-45.71-.04-1.2.19-1.84,1.52-2.01,10.56-1.31,21.12-2.67,31.68-4.01.24-.03.49.03.96.07v9.19c-7.08.93-14.31,1.88-21.6,2.84v10.4c6.36-.84,12.41-1.63,18.67-2.45.16,3,.32,5.88.49,9.02-6.32.83-12.47,1.63-18.54,2.43v11.75Z"/>
        <path class="cls-2" d="M286.94,169.98c11.56-1.48,22.76-2.91,34.2-4.37v9.36c-7.17.94-14.39,1.89-21.55,2.83v10.4c6.3-.79,12.3-1.54,18.65-2.34v8.96c-5.87.77-12.02,1.57-18.44,2.41.18,3.88.35,7.66.53,11.7,7.39-.91,14.54-1.78,21.9-2.69.15,2.73.37,5.37.39,8.02,0,.49-.7,1.37-1.16,1.43-10.63,1.42-21.27,2.74-31.91,4.08-.24.03-.49-.04-1.04-.09-.52-16.48-1.04-32.98-1.57-49.7Z"/>
        <path class="cls-2" d="M602.73,179.46c-.53-16.78-1.04-33.16-1.56-49.85,11.42-1.47,22.66-2.91,34.1-4.38.15,3.16.29,6.12.44,9.31-7.42.97-14.65,1.92-21.99,2.89v10.39c6.33-.78,12.39-1.52,18.77-2.3v8.93c-5.89.77-12.02,1.58-18.1,2.38v11.73c7.45-.9,14.67-1.78,22.17-2.68v9.23c-11.04,1.42-22.22,2.86-33.82,4.35Z"/>
        <path class="cls-2" d="M858.65,96.48v9.49c-7.24.91-14.47,1.82-21.67,2.72v10.35c6.35-.77,12.46-1.51,18.82-2.28v9.04c-5.92.78-12.06,1.59-18.14,2.38v11.76c7.51-.96,14.66-1.87,22.05-2.82.15,3.11.29,6.06.44,9.3-11.4,1.47-22.66,2.92-34.17,4.4-.53-16.66-1.05-33.1-1.59-49.84,11.34-1.5,22.59-2.98,34.24-4.52Z"/>
        <path class="cls-2" d="M765.25,108.37c8-.9,15.58-2.12,23.19-2.49,8.21-.4,14.31,4.19,15.84,10.95,1.88,8.31-1.76,15.79-9.28,19.52-4.83,2.39-10.07,2.66-15.23,3.42-.4.06-.79.1-1.2.15v17.05c-3.71.47-7.56.95-11.71,1.48-.54-16.71-1.07-33.24-1.61-50.07ZM777.94,130.64c3.58-.53,6.91-.75,10.09-1.56,3.65-.93,5.18-4.49,4.3-8.88-.67-3.37-3.25-5.23-7.01-4.87-2.53.24-5.05.69-7.39,1.03v14.29Z"/>
        <path class="cls-2" d="M561.7,170.77c1.29-5.46,2.47-10.35,3.61-15.25,1.54-6.63,3.07-13.26,4.54-19.9.33-1.51.97-2.22,2.61-2.36,3.63-.31,7.24-.87,11.28-1.39-.99,3.42-1.92,6.63-2.84,9.84-3.87,13.39-7.76,26.77-11.56,40.18-.46,1.61-1.18,2.29-2.87,2.4-3.15.22-6.27.75-9.42.99-.6.05-1.64-.46-1.83-.96-5.85-15.26-11.62-30.55-17.4-45.84-.05-.14,0-.33,0-.63,3.7-.52,7.4-.98,11.09-1.57,1.59-.25,2.11.39,2.55,1.85,3.06,9.99,6.22,19.96,9.35,29.93.22.71.46,1.41.89,2.71Z"/>
        <path class="cls-2" d="M653.97,122.9c3.97-.52,7.74-1.01,11.99-1.57.45,13.5.89,26.91,1.34,40.49,6.98-.87,13.71-1.71,20.72-2.59v9.37c-10.66,1.35-21.42,2.71-32.48,4.11-.52-16.68-1.04-33.18-1.57-49.81Z"/>
        <path class="cls-2" d="M94.16,194.45c-6.65-11.08-13.19-21.96-19.71-32.84-11.13-18.57-22.2-37.19-33.46-55.68-1.72-2.82-1.81-5.32-.77-8.18,2.99-8.21,8.86-14.14,15.46-19.48,1.74-1.41,3.62-2.64,5.62-4.09.45.66.89,1.22,1.25,1.83,15.59,26.03,31.18,52.06,46.71,78.13.6,1.01.95,2.3.99,3.48.33,11.5-3.97,21.38-10.82,30.32-1.66,2.16-3.43,4.25-5.27,6.52Z"/>
        <path class="cls-2" d="M157.77,197.59v20.45c-5.13-.02-8.98,3.02-12.13,7.57-15.95-9.17-31.88-18.33-48.07-27.64,9.6-11.37,17.72-23.36,17.33-39.21,2.93,1.15,5.7,2.42,8.59,3.33,8.16,2.58,16.5,2.77,24.9,1.42,2.29-.37,4.57-.76,6.86-1.14.55,8.33,1.1,16.66,1.65,24.99.29,3.41.58,6.83.87,10.24Z"/>
        <path class="cls-2" d="M62.05,61.23c-5.7,4-11.59,7.76-17.04,12.08-5.31,4.2-9.51,9.5-12.64,15.58-.18.35-.48.63-.82,1.08-1.8-2.97-3.58-5.78-5.22-8.66-1.75-3.07-1.72-6.29-.57-9.59,1.67-4.8,4.4-8.94,7.93-12.53,5.63-5.72,11.86-10.64,19.28-13.88,3.02,5.31,6.05,10.62,9.07,15.93Z"/>
        <path class="cls-5" d="M156.91,187.35c-.55-8.33-1.1-16.66-1.65-24.99.48-.08.95-.17,2.15-.37v23.28c-.16.69-.33,1.39-.49,2.08Z"/>
        <path class="cls-4" d="M156.91,187.35c.16-.69.33-1.39.49-2.08.12,4.11.25,8.22.37,12.32-.29-3.42-.58-6.83-.87-10.24Z"/>
      </g>
      <line class="cls-1" x1="209.58" y1="250.53" x2="915.42" y2="160.81"/>
    </g>
  </g>
</svg>